<svg version="1.1" id="Layer_1" xmlns="http://www.w3.org/2000/svg" xmlns:xlink="http://www.w3.org/1999/xlink" x="0px" y="0px"
	 width="100%" viewBox="0 0 166 166" enable-background="new 0 0 166 166" xml:space="preserve">
<path fill="#FFFFFF" opacity="1.000000" stroke="none" 
	d="
M1.000000,138.000000 
	C1.000000,92.376328 1.000000,46.752651 1.000000,1.064490 
	C56.238178,1.064490 111.476456,1.064490 166.857361,1.064490 
	C166.857361,56.333046 166.857361,111.666481 166.857361,167.000000 
	C162.945786,167.000000 158.949554,167.000000 154.381439,166.659515 
	C149.958023,161.388351 147.578476,156.200272 147.749573,149.532333 
	C147.873398,144.707306 145.886826,139.828110 144.914795,134.578949 
	C143.973068,131.619644 142.957932,129.054489 141.952881,126.355988 
	C141.862350,126.027161 141.710297,125.971054 141.236084,125.761353 
	C140.474152,125.327736 139.982941,125.187088 139.501129,125.028336 
	C139.510544,125.010246 139.511993,125.052284 139.318237,124.855598 
	C139.086670,124.478973 139.048828,124.299042 139.339127,123.955399 
	C140.757278,121.159882 143.112991,118.299225 142.686676,115.941620 
	C141.642593,110.167778 139.627563,104.499603 137.416458,99.025948 
	C135.107910,93.311081 130.282227,88.669281 130.399521,81.933258 
	C131.141357,81.260406 131.604492,80.663498 132.036835,80.032341 
	C132.006058,79.998100 132.054184,80.075958 132.403778,79.933563 
	C135.244720,78.493813 136.137970,76.837959 133.953217,74.356445 
	C133.863647,74.028221 133.712204,73.972534 133.231445,73.742432 
	C132.293381,68.941338 131.633255,64.454346 131.363220,59.855598 
	C131.817886,55.991497 131.882431,52.239162 132.033188,48.332401 
	C132.177048,47.927052 132.119263,47.706352 132.279327,47.209557 
	C132.093445,42.910557 131.574295,38.917877 131.030914,34.960026 
	C131.006683,34.994854 131.080170,34.952431 130.956833,34.623238 
	C130.203339,33.359177 129.573196,32.424313 128.825897,31.241207 
	C127.642601,30.014204 126.576462,29.035440 125.276253,27.814207 
	C124.364220,27.020237 123.686249,26.468735 123.001175,25.959625 
	C122.994057,26.002020 123.078506,26.018122 123.040604,25.652430 
	C122.649422,24.687574 122.296150,24.088413 121.953445,23.356613 
	C121.864212,23.028734 121.713036,22.973095 121.241547,22.766626 
	C116.844574,20.103022 112.617958,18.312756 107.629257,18.922651 
	C105.936584,19.129587 104.129196,18.171469 102.382561,18.203270 
	C95.250298,18.333134 88.121269,18.640045 80.636566,19.042772 
	C75.179756,20.855616 70.077415,22.507429 64.611115,24.086853 
	C63.080765,24.937269 61.914383,25.860073 60.793770,26.823174 
	C60.839542,26.863470 60.870869,26.745596 60.481171,26.608540 
	C58.224133,27.333366 56.356796,28.195248 54.284477,29.118294 
	C53.738792,29.615986 53.398087,30.052515 52.774128,30.752478 
	C51.990223,32.638813 51.489571,34.261715 50.647987,36.065292 
	C49.498615,39.160992 48.690170,42.076019 47.502510,45.198601 
	C46.587009,57.484905 46.322956,69.510490 53.937775,80.382294 
	C57.134331,87.136169 59.806553,93.629288 58.547600,101.130615 
	C56.724182,105.130806 55.233105,108.991447 53.810455,112.844788 
	C53.878891,112.837486 53.809902,112.718376 53.491520,112.550293 
	C52.424995,113.234337 51.676853,114.086464 50.962990,114.968506 
	C50.997276,114.998405 50.944099,114.924629 50.637939,115.029831 
	C49.530678,115.736328 48.729580,116.337608 47.963261,116.968964 
	C47.998043,116.999039 47.940742,116.927193 47.617630,117.046600 
	C45.839664,118.089760 44.384819,119.013527 42.956413,119.971138 
	C42.982861,120.004990 42.916553,119.948204 42.504921,119.972214 
	C38.117390,120.997063 34.141491,121.997894 29.953526,123.336334 
	C28.160425,123.837791 26.579390,124.001640 24.563709,124.088814 
	C20.580542,124.692589 17.032019,125.373039 13.486937,126.035889 
	C13.490380,126.018280 13.514079,126.044983 13.178949,126.032532 
	C12.559373,126.307442 12.274925,126.594788 11.662352,127.021782 
	C5.762761,128.746521 3.820029,133.791504 1.000000,138.000000 
z"/>
<path fill="#FFF200" opacity="1.000000" stroke="none" 
	d="
M24.998352,124.165489 
	C26.579390,124.001640 28.160425,123.837791 30.371233,123.336838 
	C35.286335,123.722748 39.573067,119.992401 44.027153,123.314270 
	C45.644356,125.101227 47.269058,126.443169 48.510513,128.076416 
	C55.536995,137.320404 61.756283,147.298813 69.615883,155.758545 
	C79.790825,166.710403 100.305214,167.525192 113.342400,159.242508 
	C119.503784,155.328094 122.450050,149.681305 124.504021,142.781708 
	C125.266670,138.034348 125.667313,133.506851 126.029411,128.986053 
	C125.990860,128.992722 126.000572,129.070358 126.379196,128.886414 
	C126.905296,126.586090 127.052773,124.469727 127.266411,121.403809 
	C129.614700,122.389740 133.056763,122.973137 133.232971,124.077576 
	C133.682281,126.893860 132.673843,129.942719 132.227753,133.044098 
	C133.336151,132.838654 134.998657,132.530502 136.525864,132.247437 
	C137.321884,135.236115 138.089706,138.118912 138.915985,141.445526 
	C139.268433,144.464188 139.356415,147.083252 139.897919,149.604950 
	C141.148407,155.428391 142.618805,161.204620 144.000000,167.000000 
	C108.645775,167.000000 73.291542,167.000000 37.468647,166.583008 
	C36.704887,164.587189 36.697865,162.881195 36.066490,161.450806 
	C32.744064,153.923721 29.263950,146.466248 25.907639,138.626709 
	C25.630869,137.673752 25.285030,137.078659 24.924314,136.367874 
	C24.909437,136.252167 24.512655,136.058029 24.256580,135.782013 
	C23.314077,134.499344 22.627645,133.492691 21.926170,132.370117 
	C21.911129,132.254166 21.513878,132.058731 21.253426,131.786514 
	C19.975958,130.838638 18.958946,130.162979 17.803505,129.260956 
	C16.759310,128.198563 15.853544,127.362526 15.310953,126.292908 
	C18.782202,125.428055 21.890278,124.796776 24.998352,124.165489 
z"/>
<path fill="#22B14C" opacity="1.000000" stroke="none" 
	d="
M14.947779,126.526489 
	C15.853544,127.362526 16.759310,128.198563 17.598368,129.709579 
	C18.859066,130.942612 20.186472,131.500671 21.513878,132.058731 
	C21.513878,132.058731 21.911129,132.254166 21.695904,132.808472 
	C22.491337,134.261200 23.501997,135.159607 24.512657,136.058029 
	C24.512655,136.058029 24.909437,136.252167 24.689020,136.696564 
	C24.925261,137.755493 25.381918,138.370041 25.838573,138.984604 
	C29.263950,146.466248 32.744064,153.923721 36.066490,161.450806 
	C36.697865,162.881195 36.704887,164.587189 36.999989,166.583008 
	C25.081362,167.000000 13.162722,167.000000 1.000000,167.000000 
	C1.000000,157.647186 1.000000,148.292252 1.000000,138.468658 
	C3.820029,133.791504 5.762761,128.746521 11.992804,127.026695 
	C12.938946,126.609634 13.226511,126.327309 13.514077,126.044983 
	C13.514079,126.044983 13.490380,126.018280 13.801294,126.314758 
	C14.390732,126.582985 14.669254,126.554733 14.947779,126.526489 
z"/>
<path fill="#22B14C" opacity="1.000000" stroke="none" 
	d="
M144.454102,167.000000 
	C142.618805,161.204620 141.148407,155.428391 139.897919,149.604950 
	C139.356415,147.083252 139.268433,144.464188 138.972885,141.017242 
	C138.653534,135.082047 138.335739,130.018936 138.005157,124.973083 
	C137.992355,124.990326 137.959427,125.017883 138.343140,125.226456 
	C138.988556,125.307449 139.250275,125.179871 139.511993,125.052284 
	C139.511993,125.052284 139.510544,125.010246 139.703033,125.432632 
	C140.432602,125.921448 140.969711,125.987885 141.506805,126.054321 
	C141.710297,125.971054 141.862350,126.027161 141.722046,126.728439 
	C142.601181,129.813858 143.721283,132.393463 144.841385,134.973068 
	C145.886826,139.828110 147.873398,144.707306 147.749573,149.532333 
	C147.578476,156.200272 149.958023,161.388351 153.904785,166.659515 
	C150.969406,167.000000 147.938812,167.000000 144.454102,167.000000 
z"/>
<path fill="#22B14C" opacity="1.000000" stroke="none" 
	d="
M124.142014,143.001602 
	C122.450050,149.681305 119.503784,155.328094 113.342400,159.242508 
	C100.305214,167.525192 79.790825,166.710403 69.615883,155.758545 
	C61.756283,147.298813 55.536995,137.320404 48.510513,128.076416 
	C47.269058,126.443169 45.644356,125.101227 43.976479,122.975662 
	C43.476406,121.533783 43.196480,120.740990 42.916553,119.948204 
	C42.916553,119.948204 42.982861,120.004990 43.305466,120.180984 
	C45.065628,119.213715 46.503185,118.070450 47.940742,116.927193 
	C47.940742,116.927193 47.998043,116.999039 48.324028,117.173660 
	C49.414707,116.540390 50.179405,115.732513 50.944099,114.924637 
	C50.944099,114.924629 50.997276,114.998405 51.319431,115.173271 
	C52.364357,114.471550 53.087132,113.594963 53.809906,112.718376 
	C53.809902,112.718376 53.878891,112.837486 54.177315,112.805641 
	C55.943806,108.846222 57.411877,104.918640 58.879944,100.991066 
	C59.806553,93.629288 57.134331,87.136169 53.984409,80.001259 
	C48.459301,68.447693 47.324627,56.869785 47.881721,44.991047 
	C48.690170,42.076019 49.498615,39.160992 51.003777,35.928291 
	C52.152786,33.903427 52.605083,32.196236 53.057381,30.489044 
	C53.398087,30.052515 53.738792,29.615986 54.664928,29.349262 
	C57.123863,28.594576 58.997364,27.670086 60.870869,26.745596 
	C60.870869,26.745596 60.839542,26.863470 61.155800,26.904278 
	C62.639736,26.016470 63.807407,25.087856 64.975082,24.159245 
	C70.077415,22.507429 75.179756,20.855616 81.102966,19.090973 
	C89.311501,19.313520 96.727280,19.360098 104.077904,20.075905 
	C109.930038,20.645788 115.702599,22.032797 121.510490,23.057055 
	C121.713036,22.973095 121.864212,23.028734 121.734421,23.721649 
	C122.029388,24.818924 122.553947,25.418526 123.078506,26.018124 
	C123.078506,26.018122 122.994057,26.002020 123.027344,26.384674 
	C123.877197,27.197113 124.693764,27.626896 125.510323,28.056679 
	C126.576462,29.035440 127.642601,30.014204 128.595551,31.636723 
	C129.348282,33.171131 130.214233,34.061783 131.080170,34.952431 
	C131.080170,34.952431 131.006683,34.994854 130.849030,35.357487 
	C131.109589,39.652039 131.527817,43.583954 131.946045,47.515873 
	C132.119263,47.706352 132.177048,47.927052 131.800415,48.704235 
	C131.606903,50.295433 131.732391,51.360374 131.726501,51.310329 
	C125.052574,51.706966 118.693794,52.084873 112.201141,52.470737 
	C112.390335,51.532257 112.592239,50.530716 112.635658,50.315327 
	C111.019142,50.387356 109.509605,50.339985 108.034737,50.543671 
	C104.740807,50.998577 101.477402,51.899593 98.177513,52.035667 
	C92.667000,52.262905 87.035400,51.351910 81.640892,52.160984 
	C74.089928,53.293480 66.661201,55.387337 59.273438,57.410431 
	C54.311909,58.769108 53.697617,61.324097 57.313087,65.082657 
	C58.440220,59.798653 62.015682,59.297421 65.650490,61.320499 
	C67.819038,62.818321 69.987595,64.316147 72.274307,65.893806 
	C72.904732,66.480484 73.417007,66.987320 73.709282,67.891876 
	C76.186302,69.447426 78.841476,71.440521 81.589584,71.578148 
	C86.372543,71.817688 91.548523,73.938766 96.312584,70.007507 
	C98.087463,68.179878 99.543053,66.509102 101.342102,64.719833 
	C102.465683,62.282806 103.186386,59.941383 104.064873,57.660740 
	C104.304726,57.038071 105.018745,56.598049 105.515152,56.074203 
	C106.002319,56.608471 106.695282,57.062145 106.941490,57.690784 
	C108.087532,60.617016 109.109985,63.591644 110.176651,66.548965 
	C110.502647,66.437775 110.828644,66.326576 111.154640,66.215385 
	C110.088600,63.037964 109.022560,59.860538 107.956520,56.683109 
	C108.299774,56.544754 108.643028,56.406399 108.986282,56.268040 
	C110.461548,58.710545 111.936813,61.153049 113.567474,63.854530 
	C114.280327,64.928032 114.837784,65.742569 115.642868,66.883759 
	C119.596260,67.142860 123.302025,67.075302 127.318466,66.999664 
	C128.110107,66.686523 128.591064,66.381485 129.407913,66.268097 
	C130.656021,69.162018 128.874390,73.199600 133.509415,74.056541 
	C133.712204,73.972534 133.863647,74.028221 133.720062,74.729805 
	C133.002335,76.849319 132.528259,78.462639 132.054184,80.075958 
	C132.054184,80.075958 132.006058,79.998100 131.718506,79.813248 
	C130.994232,80.421997 130.557526,81.215599 130.120819,82.009201 
	C130.282227,88.669281 135.107910,93.311081 137.416458,99.025948 
	C139.627563,104.499603 141.642593,110.167778 142.686676,115.941620 
	C143.112991,118.299225 140.757278,121.159882 139.076752,123.970200 
	C138.310638,124.438446 138.135025,124.728165 137.959427,125.017883 
	C137.959427,125.017883 137.992355,124.990326 137.692047,125.119934 
	C136.819275,126.283997 136.246811,127.318459 135.412674,128.825760 
	C134.032913,122.420586 137.123306,115.894867 131.931503,111.004768 
	C131.973633,110.998627 131.986496,111.082809 131.989136,110.685234 
	C131.303207,109.544449 130.614670,108.801239 129.962250,108.030022 
	C129.998367,108.002014 129.939117,108.071693 130.144348,107.711189 
	C129.541260,106.585732 128.732925,105.820786 127.962784,105.033546 
	C128.000977,105.011261 127.944740,105.079597 128.126511,104.718964 
	C127.747139,103.856476 127.186005,103.354614 125.496841,101.843872 
	C126.199493,104.524788 126.520363,105.749062 126.998138,107.316467 
	C126.919876,109.460495 126.661774,111.258781 126.457222,113.063141 
	C126.309219,114.368561 126.232323,115.682037 126.075562,117.451813 
	C126.018456,121.631264 126.009514,125.350807 126.000572,129.070358 
	C126.000572,129.070358 125.990860,128.992722 125.665939,129.118851 
	C122.132912,133.585739 124.024422,138.370972 124.142014,143.001602 
M70.999695,89.002441 
	C70.999695,89.002441 70.944160,89.075409 71.296127,88.329132 
	C70.173515,87.906380 69.050911,87.483627 68.000809,87.006378 
	C68.000809,87.006378 67.944580,87.077751 68.296349,86.343651 
	C67.208374,86.445175 66.120399,86.546700 65.032425,86.648224 
	C67.045189,90.078178 69.057945,93.508133 71.003967,96.998863 
	C71.003967,96.998863 71.053673,96.923622 70.699692,97.744545 
	C71.636375,98.515152 72.573059,99.285759 74.006432,100.290451 
	C74.985229,101.356750 75.964027,102.423058 76.476997,104.243263 
	C77.072556,105.124329 77.668114,106.005394 78.093742,106.895256 
	C78.093742,106.895256 78.128708,106.728722 78.270660,107.527931 
	C81.554848,111.615334 79.797737,120.488609 76.124168,121.313751 
	C79.385185,125.919289 72.425865,132.483292 79.074158,136.583786 
	C74.799088,131.293274 78.751587,126.707146 79.452728,121.760796 
	C80.319923,115.642967 79.869781,109.338425 79.337837,102.796730 
	C77.186256,98.534737 75.034668,94.272751 72.687134,89.316994 
	C72.106087,89.237373 71.525040,89.157753 70.999695,89.002441 
M108.454720,105.542305 
	C107.966225,105.067177 107.477737,104.592041 106.340553,103.800697 
	C104.936501,101.761299 104.936501,101.761299 102.302673,105.387909 
	C101.721405,108.322716 101.140144,111.257515 100.805374,112.947746 
	C105.215515,112.947746 109.131157,112.947746 113.038467,113.624702 
	C113.251007,113.993820 113.463554,114.362930 113.676094,114.732048 
	C113.849564,114.556046 114.023041,114.380035 114.196510,114.204033 
	C113.791237,113.804596 113.385956,113.405167 112.966133,112.260094 
	C111.954605,111.194832 110.943085,110.129570 109.999702,109.000916 
	C109.999702,109.000916 109.939117,109.071701 110.349594,108.350693 
	C109.541260,107.585739 108.732918,106.820786 107.997559,106.000305 
	C107.997559,106.000305 107.921844,106.055992 108.454720,105.542305 
M117.209923,134.113922 
	C120.601570,127.910110 119.738724,120.837845 114.972153,115.772209 
	C118.790573,128.687744 118.790573,128.687744 113.903877,131.291946 
	C114.552780,132.143845 115.233925,133.038086 115.272926,134.410110 
	C115.421219,137.123566 115.569511,139.837006 115.717804,142.550461 
	C116.005119,142.521881 116.292442,142.493301 116.579758,142.464722 
	C116.579758,139.822815 116.579758,137.180923 117.209923,134.113922 
M87.974899,101.887589 
	C87.809799,106.431801 87.644691,110.976006 87.506058,114.791740 
	C87.366951,114.939240 88.010323,114.257027 88.434769,113.806961 
	C89.269608,115.702560 90.126915,117.649162 91.219284,120.129517 
	C90.750732,115.750893 90.439613,112.234665 89.981567,108.737694 
	C89.541298,105.376457 88.948914,102.035149 88.423370,98.685089 
	C87.933121,98.781242 87.442879,98.877403 86.952629,98.973564 
	C87.184319,99.711906 87.416000,100.450241 87.974899,101.887589 
M123.149948,100.016914 
	C116.928757,100.924904 121.419868,105.444168 120.169449,108.024704 
	C121.746468,106.144440 123.168755,104.235703 124.363380,102.193779 
	C124.636070,101.727692 124.122696,100.801727 123.149948,100.016914 
M96.514351,136.710663 
	C95.305374,137.404449 94.096397,138.098236 92.887421,138.792023 
	C93.108154,139.331894 93.328888,139.871780 93.549622,140.411667 
	C97.546547,139.412628 101.543472,138.413589 105.540398,137.414551 
	C105.457306,137.199173 105.374214,136.983780 105.291122,136.768402 
	C102.544647,136.960907 99.798172,137.153427 96.514351,136.710663 
M99.852966,132.632446 
	C98.576485,130.207977 97.300003,127.783493 96.094925,125.494644 
	C94.388763,126.330650 93.040962,126.991058 91.132690,127.926102 
	C96.959290,127.681961 98.265938,131.100357 98.065018,136.322906 
	C99.016029,134.752258 99.433456,134.062851 99.852966,132.632446 
M71.939674,113.775124 
	C71.144592,112.384659 70.349510,110.994186 69.554428,109.603722 
	C69.293144,109.732765 69.031860,109.861801 68.770576,109.990845 
	C70.041824,112.876038 71.313072,115.761223 72.584320,118.646408 
	C72.820221,118.577332 73.056114,118.508263 73.292007,118.439186 
	C72.905029,117.127365 72.518051,115.815552 71.939674,113.775124 
M118.051292,144.239914 
	C118.883575,142.848648 119.715866,141.457397 120.548157,140.066132 
	C120.242126,139.946854 119.936104,139.827560 119.630074,139.708282 
	C119.001282,140.966766 118.372482,142.225266 118.051292,144.239914 
M128.882248,47.491894 
	C129.107315,47.884903 129.332382,48.277916 130.181183,49.760078 
	C129.863998,46.896763 129.677261,45.210995 129.490509,43.525227 
	C129.145004,43.537743 128.799500,43.550259 128.453995,43.562775 
	C128.453995,44.686874 128.453995,45.810970 128.882248,47.491894 
z"/>
<path fill="#000000" opacity="1.000000" stroke="none" 
	d="
M72.156143,65.813965 
	C69.987595,64.316147 67.819038,62.818321 65.650490,61.320499 
	C62.015682,59.297421 58.440220,59.798653 57.313087,65.082657 
	C53.697617,61.324097 54.311909,58.769108 59.273438,57.410431 
	C66.661201,55.387337 74.089928,53.293480 81.640892,52.160984 
	C87.035400,51.351910 92.667000,52.262905 98.177513,52.035667 
	C101.477402,51.899593 104.740807,50.998577 108.034737,50.543671 
	C109.509605,50.339985 111.019142,50.387356 112.635658,50.315327 
	C112.592239,50.530716 112.390335,51.532257 112.201141,52.470737 
	C118.693794,52.084873 125.052574,51.706966 131.726501,51.310329 
	C131.732391,51.360374 131.606903,50.295433 131.714203,48.858662 
	C131.882431,52.239162 131.817886,55.991497 131.378326,59.871033 
	C131.003326,59.998230 131.036224,60.026173 131.020615,59.614845 
	C131.554443,56.345924 129.671890,55.706345 127.479843,54.973576 
	C121.398743,52.940765 116.788261,56.062935 111.922150,58.909157 
	C112.701775,60.360287 113.390701,61.642609 113.902695,63.082581 
	C113.725746,63.240234 113.412071,63.595558 113.412071,63.595558 
	C111.936813,61.153049 110.461548,58.710545 108.986282,56.268040 
	C108.643028,56.406399 108.299774,56.544754 107.956520,56.683109 
	C109.022560,59.860538 110.088600,63.037964 111.154640,66.215385 
	C110.828644,66.326576 110.502647,66.437775 110.176651,66.548965 
	C109.109985,63.591644 108.087532,60.617016 106.941490,57.690784 
	C106.695282,57.062145 106.002319,56.608471 105.515152,56.074203 
	C105.018745,56.598049 104.304726,57.038071 104.064873,57.660740 
	C103.186386,59.941383 102.465683,62.282806 101.342644,64.337784 
	C101.559761,61.940571 102.119789,59.806919 102.435898,58.602589 
	C90.608696,51.394794 79.141281,53.608532 67.591568,61.027081 
	C69.168175,62.680477 70.662163,64.247223 72.156143,65.813965 
z"/>
<path fill="#000000" opacity="1.000000" stroke="none" 
	d="
M121.241547,22.766626 
	C115.702599,22.032797 109.930038,20.645788 104.077904,20.075905 
	C96.727280,19.360098 89.311501,19.313520 81.457443,18.929943 
	C88.121269,18.640045 95.250298,18.333134 102.382561,18.203270 
	C104.129196,18.171469 105.936584,19.129587 107.629257,18.922651 
	C112.617958,18.312756 116.844574,20.103022 121.241547,22.766626 
z"/>
<path fill="#000000" opacity="1.000000" stroke="none" 
	d="
M47.502506,45.198601 
	C47.324627,56.869785 48.459301,68.447693 53.926529,79.627914 
	C46.322956,69.510490 46.587009,57.484905 47.502506,45.198601 
z"/>
<path fill="#000000" opacity="1.000000" stroke="none" 
	d="
M42.504921,119.972214 
	C43.196480,120.740990 43.476406,121.533783 43.807007,122.665169 
	C39.573067,119.992401 35.286335,123.722748 30.583298,122.999237 
	C34.141491,121.997894 38.117390,120.997063 42.504921,119.972214 
z"/>
<path fill="#000000" opacity="1.000000" stroke="none" 
	d="
M133.231445,73.742432 
	C128.874390,73.199600 130.656021,69.162018 129.217331,66.079834 
	C128.563339,65.574883 128.435806,65.449852 128.527740,65.051086 
	C129.510208,63.193626 130.273209,61.609901 131.036224,60.026173 
	C131.036224,60.026173 131.003326,59.998230 130.988220,59.982796 
	C131.633255,64.454346 132.293381,68.941338 133.231445,73.742432 
z"/>
<path fill="#000000" opacity="1.000000" stroke="none" 
	d="
M58.547600,101.130615 
	C57.411877,104.918640 55.943806,108.846222 54.108879,112.812943 
	C55.233105,108.991447 56.724182,105.130806 58.547600,101.130615 
z"/>
<path fill="#000000" opacity="1.000000" stroke="none" 
	d="
M132.279327,47.209557 
	C131.527817,43.583954 131.109589,39.652039 130.873245,35.322659 
	C131.574295,38.917877 132.093445,42.910557 132.279327,47.209557 
z"/>
<path fill="#000000" opacity="1.000000" stroke="none" 
	d="
M15.310952,126.292908 
	C14.669254,126.554733 14.390732,126.582985 13.797852,126.332367 
	C17.032019,125.373039 20.580542,124.692589 24.563709,124.088814 
	C21.890278,124.796776 18.782202,125.428055 15.310952,126.292908 
z"/>
<path fill="#000000" opacity="1.000000" stroke="none" 
	d="
M144.914795,134.578949 
	C143.721283,132.393463 142.601181,129.813858 141.711929,126.861778 
	C142.957932,129.054489 143.973068,131.619644 144.914795,134.578949 
z"/>
<path fill="#000000" opacity="1.000000" stroke="none" 
	d="
M64.611115,24.086855 
	C63.807407,25.087856 62.639736,26.016470 61.110031,26.863979 
	C61.914383,25.860073 63.080765,24.937269 64.611115,24.086855 
z"/>
<path fill="#000000" opacity="1.000000" stroke="none" 
	d="
M132.403778,79.933563 
	C132.528259,78.462639 133.002335,76.849319 133.709564,74.862640 
	C136.137970,76.837959 135.244720,78.493813 132.403778,79.933563 
z"/>
<path fill="#000000" opacity="1.000000" stroke="none" 
	d="
M60.481171,26.608540 
	C58.997364,27.670086 57.123863,28.594576 54.869907,29.288097 
	C56.356796,28.195248 58.224133,27.333366 60.481171,26.608540 
z"/>
<path fill="#000000" opacity="1.000000" stroke="none" 
	d="
M47.617630,117.046600 
	C46.503185,118.070450 45.065628,119.213715 43.279022,120.147125 
	C44.384819,119.013527 45.839664,118.089760 47.617630,117.046600 
z"/>
<path fill="#000000" opacity="1.000000" stroke="none" 
	d="
M52.774128,30.752478 
	C52.605083,32.196236 52.152786,33.903427 51.344704,35.747620 
	C51.489571,34.261715 51.990223,32.638813 52.774128,30.752478 
z"/>
<path fill="#000000" opacity="1.000000" stroke="none" 
	d="
M53.491524,112.550293 
	C53.087132,113.594963 52.364357,114.471550 51.285149,115.143372 
	C51.676853,114.086464 52.424995,113.234337 53.491524,112.550293 
z"/>
<path fill="#000000" opacity="1.000000" stroke="none" 
	d="
M130.956833,34.623238 
	C130.214233,34.061783 129.348282,33.171131 128.712708,31.884964 
	C129.573196,32.424313 130.203339,33.359177 130.956833,34.623238 
z"/>
<path fill="#000000" opacity="1.000000" stroke="none" 
	d="
M50.637939,115.029839 
	C50.179405,115.732513 49.414707,116.540390 48.289246,117.143585 
	C48.729580,116.337608 49.530678,115.736328 50.637939,115.029839 
z"/>
<path fill="#000000" opacity="1.000000" stroke="none" 
	d="
M130.399536,81.933258 
	C130.557526,81.215599 130.994232,80.421997 131.749268,79.847488 
	C131.604492,80.663498 131.141357,81.260406 130.399536,81.933258 
z"/>
<path fill="#000000" opacity="1.000000" stroke="none" 
	d="
M125.276253,27.814209 
	C124.693764,27.626896 123.877197,27.197113 123.034462,26.342281 
	C123.686249,26.468735 124.364220,27.020237 125.276253,27.814209 
z"/>
<path fill="#000000" opacity="1.000000" stroke="none" 
	d="
M123.040604,25.652431 
	C122.553947,25.418526 122.029388,24.818924 121.723854,23.854288 
	C122.296150,24.088413 122.649422,24.687574 123.040604,25.652431 
z"/>
<path fill="#000000" opacity="1.000000" stroke="none" 
	d="
M138.343140,125.226456 
	C138.135025,124.728165 138.310638,124.438446 138.748627,124.133919 
	C139.048828,124.299042 139.086670,124.478973 139.318237,124.855598 
	C139.250275,125.179871 138.988556,125.307449 138.343140,125.226456 
z"/>
<path fill="#000000" opacity="1.000000" stroke="none" 
	d="
M141.236084,125.761360 
	C140.969711,125.987885 140.432602,125.921448 139.693604,125.450722 
	C139.982941,125.187088 140.474152,125.327736 141.236084,125.761360 
z"/>
<path fill="#000000" opacity="1.000000" stroke="none" 
	d="
M13.178947,126.032532 
	C13.226511,126.327309 12.938946,126.609634 12.320929,126.887047 
	C12.274925,126.594788 12.559373,126.307442 13.178947,126.032532 
z"/>
<path fill="#000000" opacity="1.000000" stroke="none" 
	d="
M131.889374,111.010910 
	C137.123306,115.894867 134.032913,122.420586 135.412674,128.825760 
	C136.246811,127.318459 136.819275,126.283997 137.704849,125.102684 
	C138.335739,130.018936 138.653534,135.082047 138.914429,140.573441 
	C138.089706,138.118912 137.321884,135.236115 136.525864,132.247437 
	C134.998657,132.530502 133.336151,132.838654 132.227753,133.044098 
	C132.673843,129.942719 133.682281,126.893860 133.232971,124.077576 
	C133.056763,122.973137 129.614700,122.389740 127.266411,121.403809 
	C127.052773,124.469727 126.905296,126.586090 126.379196,128.886414 
	C126.009514,125.350807 126.018456,121.631264 126.434601,117.630981 
	C126.957130,118.463120 127.072441,119.575996 127.184364,120.656120 
	C129.420242,121.039795 131.548279,121.404968 134.559845,121.921745 
	C133.593765,117.974617 132.741562,114.492767 131.889374,111.010910 
z"/>
<path fill="#000000" opacity="1.000000" stroke="none" 
	d="
M124.504021,142.781708 
	C124.024422,138.370972 122.132912,133.585739 125.704498,129.112183 
	C125.667313,133.506851 125.266670,138.034348 124.504021,142.781708 
z"/>
<path fill="#000000" opacity="1.000000" stroke="none" 
	d="
M24.256582,135.782013 
	C23.501997,135.159607 22.491337,134.261200 21.710945,132.924408 
	C22.627645,133.492691 23.314077,134.499344 24.256582,135.782013 
z"/>
<path fill="#000000" opacity="1.000000" stroke="none" 
	d="
M21.253426,131.786514 
	C20.186472,131.500671 18.859066,130.942612 17.736797,129.935928 
	C18.958946,130.162979 19.975958,130.838638 21.253426,131.786514 
z"/>
<path fill="#000000" opacity="1.000000" stroke="none" 
	d="
M25.907642,138.626709 
	C25.381918,138.370041 24.925261,137.755493 24.703897,136.812256 
	C25.285030,137.078659 25.630869,137.673752 25.907642,138.626709 
z"/>
<path fill="#FF7F27" opacity="1.000000" stroke="none" 
	d="
M72.274307,65.893806 
	C70.662163,64.247223 69.168175,62.680477 67.591568,61.027081 
	C79.141281,53.608532 90.608696,51.394794 102.435898,58.602589 
	C102.119789,59.806919 101.559761,61.940571 100.999184,64.456268 
	C99.543053,66.509102 98.087463,68.179878 95.890564,69.950951 
	C87.760361,71.817566 80.598557,71.699486 73.929276,67.494156 
	C73.417007,66.987320 72.904732,66.480484 72.274307,65.893806 
z"/>
<path fill="#FFFFFF" opacity="1.000000" stroke="none" 
	d="
M131.931503,111.004768 
	C132.741562,114.492767 133.593765,117.974617 134.559845,121.921745 
	C131.548279,121.404968 129.420242,121.039795 127.184364,120.656120 
	C127.072441,119.575996 126.957130,118.463120 126.482765,117.171082 
	C126.232323,115.682037 126.309219,114.368561 126.457222,113.063141 
	C126.661774,111.258781 126.919876,109.460495 127.072433,107.008080 
	C127.308128,105.930901 127.626434,105.505249 127.944740,105.079597 
	C127.944740,105.079597 128.000977,105.011261 128.067917,105.339630 
	C128.736282,106.469231 129.337692,107.270462 129.939117,108.071693 
	C129.939117,108.071693 129.998367,108.002014 130.069427,108.338539 
	C130.755814,109.477646 131.371155,110.280228 131.986496,111.082809 
	C131.986496,111.082809 131.973633,110.998627 131.931503,111.004768 
z"/>
<path fill="#FFFFFF" opacity="1.000000" stroke="none" 
	d="
M76.942825,103.489357 
	C75.964027,102.423058 74.985229,101.356750 73.515030,99.916435 
	C72.366974,98.669487 71.710320,97.796555 71.053673,96.923622 
	C71.053673,96.923622 71.003967,96.998863 70.908035,96.634003 
	C69.460175,93.603485 68.081337,90.950386 66.818542,88.243156 
	C66.736801,88.067902 67.548492,87.475891 67.944580,87.077751 
	C67.944580,87.077751 68.000809,87.006378 68.074333,87.337692 
	C69.079956,88.137802 70.012062,88.606606 70.944160,89.075409 
	C70.944160,89.075409 70.999695,89.002441 71.068085,89.330551 
	C71.718681,89.776024 72.300880,89.893394 72.883087,90.010757 
	C75.034668,94.272751 77.186256,98.534737 79.668488,103.339027 
	C79.375664,104.830460 78.752182,105.779587 78.128708,106.728722 
	C78.128708,106.728722 78.093742,106.895256 78.339600,106.515244 
	C78.037910,105.253273 77.490364,104.371315 76.942825,103.489357 
z"/>
<path fill="#FFFFFF" opacity="1.000000" stroke="none" 
	d="
M103.010933,105.115997 
	C104.936501,101.761299 104.936501,101.761299 106.670822,104.263573 
	C107.308006,105.169632 107.614922,105.612808 107.921844,106.055992 
	C107.921844,106.055992 107.997559,106.000305 108.066216,106.334152 
	C108.736290,107.469231 109.337708,108.270462 109.939117,109.071701 
	C109.939117,109.071701 109.999702,109.000916 110.123840,109.398239 
	C110.025658,110.528076 109.845261,111.878212 109.574463,111.896584 
	C107.140373,112.061806 104.690414,111.993103 101.827927,111.993103 
	C102.270042,109.422989 102.640488,107.269493 103.010933,105.115997 
z"/>
<path fill="#000000" opacity="1.000000" stroke="none" 
	d="
M78.199684,107.128326 
	C78.752182,105.779587 79.375664,104.830460 79.993973,103.497940 
	C79.869781,109.338425 80.319923,115.642967 79.452728,121.760796 
	C78.751587,126.707146 74.799088,131.293274 79.074158,136.583786 
	C72.425865,132.483292 79.385185,125.919289 76.124168,121.313751 
	C79.797737,120.488609 81.554848,111.615334 78.199684,107.128326 
z"/>
<path fill="#000000" opacity="1.000000" stroke="none" 
	d="
M115.915062,133.932327 
	C115.233925,133.038086 114.552780,132.143845 113.903877,131.291946 
	C118.790573,128.687744 118.790573,128.687744 114.972153,115.772209 
	C119.738724,120.837845 120.601570,127.910110 116.736481,134.166229 
	C116.263046,134.218536 115.915062,133.932327 115.915062,133.932327 
z"/>
<path fill="#000000" opacity="1.000000" stroke="none" 
	d="
M87.811295,101.538086 
	C87.416000,100.450241 87.184319,99.711906 86.952629,98.973564 
	C87.442879,98.877403 87.933121,98.781242 88.423370,98.685089 
	C88.948914,102.035149 89.541298,105.376457 89.981567,108.737694 
	C90.439613,112.234665 90.750732,115.750893 91.219284,120.129517 
	C90.126915,117.649162 89.269608,115.702560 88.434769,113.806961 
	C88.010323,114.257027 87.366951,114.939240 87.506058,114.791740 
	C87.644691,110.976006 87.809799,106.431801 87.811295,101.538086 
z"/>
<path fill="#000000" opacity="1.000000" stroke="none" 
	d="
M102.656799,105.251953 
	C102.640488,107.269493 102.270042,109.422989 101.827927,111.993103 
	C104.690414,111.993103 107.140373,112.061806 109.574463,111.896584 
	C109.845261,111.878212 110.025658,110.528076 110.089767,109.429932 
	C110.943085,110.129570 111.954605,111.194832 112.991257,112.620125 
	C113.016388,112.980156 113.046806,112.947746 113.046806,112.947746 
	C109.131157,112.947746 105.215515,112.947746 100.805374,112.947746 
	C101.140144,111.257515 101.721405,108.322716 102.656799,105.251953 
z"/>
<path fill="#000000" opacity="1.000000" stroke="none" 
	d="
M123.560532,100.052170 
	C124.122696,100.801727 124.636070,101.727692 124.363380,102.193779 
	C123.168755,104.235703 121.746468,106.144440 120.169449,108.024704 
	C121.419868,105.444168 116.928757,100.924904 123.560532,100.052170 
z"/>
<path fill="#000000" opacity="1.000000" stroke="none" 
	d="
M73.709282,67.891876 
	C80.598557,71.699486 87.760361,71.817566 95.571266,70.107803 
	C91.548523,73.938766 86.372543,71.817688 81.589584,71.578148 
	C78.841476,71.440521 76.186302,69.447426 73.709282,67.891876 
z"/>
<path fill="#000000" opacity="1.000000" stroke="none" 
	d="
M96.783020,137.028305 
	C99.798172,137.153427 102.544647,136.960907 105.291122,136.768402 
	C105.374214,136.983780 105.457306,137.199173 105.540398,137.414551 
	C101.543472,138.413589 97.546547,139.412628 93.549622,140.411667 
	C93.328888,139.871780 93.108154,139.331894 92.887421,138.792023 
	C94.096397,138.098236 95.305374,137.404449 96.783020,137.028305 
z"/>
<path fill="#000000" opacity="1.000000" stroke="none" 
	d="
M99.851929,133.002945 
	C99.433456,134.062851 99.016029,134.752258 98.065018,136.322906 
	C98.265938,131.100357 96.959290,127.681961 91.132690,127.926102 
	C93.040962,126.991058 94.388763,126.330650 96.094925,125.494644 
	C97.300003,127.783493 98.576485,130.207977 99.851929,133.002945 
z"/>
<path fill="#000000" opacity="1.000000" stroke="none" 
	d="
M68.120468,86.710701 
	C67.548492,87.475891 66.736801,88.067902 66.818542,88.243156 
	C68.081337,90.950386 69.460175,93.603485 70.941406,96.603607 
	C69.057945,93.508133 67.045189,90.078178 65.032425,86.648224 
	C66.120399,86.546700 67.208374,86.445175 68.120468,86.710701 
z"/>
<path fill="#000000" opacity="1.000000" stroke="none" 
	d="
M72.035378,114.139427 
	C72.518051,115.815552 72.905029,117.127365 73.292007,118.439186 
	C73.056114,118.508263 72.820221,118.577332 72.584320,118.646408 
	C71.313072,115.761223 70.041824,112.876038 68.770576,109.990845 
	C69.031860,109.861801 69.293144,109.732765 69.554428,109.603722 
	C70.349510,110.994186 71.144592,112.384659 72.035378,114.139427 
z"/>
<path fill="#000000" opacity="1.000000" stroke="none" 
	d="
M127.007782,67.007751 
	C123.302025,67.075302 119.596260,67.142860 115.824203,66.736801 
	C115.757912,66.263184 116.079048,65.924370 116.449265,66.110397 
	C120.211006,66.528603 123.602539,66.760773 126.997070,66.996506 
	C127.000076,67.000076 127.007782,67.007751 127.007782,67.007751 
z"/>
<path fill="#000000" opacity="1.000000" stroke="none" 
	d="
M116.421402,134.378784 
	C116.579758,137.180923 116.579758,139.822815 116.579758,142.464722 
	C116.292442,142.493301 116.005119,142.521881 115.717804,142.550461 
	C115.569511,139.837006 115.421219,137.123566 115.593994,134.171219 
	C115.915062,133.932327 116.263046,134.218536 116.421402,134.378784 
z"/>
<path fill="#000000" opacity="1.000000" stroke="none" 
	d="
M117.897491,143.861832 
	C118.372482,142.225266 119.001282,140.966766 119.630074,139.708282 
	C119.936104,139.827560 120.242126,139.946854 120.548157,140.066132 
	C119.715866,141.457397 118.883575,142.848648 117.897491,143.861832 
z"/>
<path fill="#000000" opacity="1.000000" stroke="none" 
	d="
M128.668121,47.213478 
	C128.453995,45.810970 128.453995,44.686874 128.453995,43.562775 
	C128.799500,43.550259 129.145004,43.537743 129.490509,43.525227 
	C129.677261,45.210995 129.863998,46.896763 130.181183,49.760078 
	C129.332382,48.277916 129.107315,47.884903 128.668121,47.213478 
z"/>
<path fill="#000000" opacity="1.000000" stroke="none" 
	d="
M128.126511,104.718964 
	C127.626434,105.505249 127.308128,105.930901 126.915527,106.664940 
	C126.520363,105.749062 126.199493,104.524788 125.496841,101.843872 
	C127.186005,103.354614 127.747139,103.856476 128.126511,104.718964 
z"/>
<path fill="#000000" opacity="1.000000" stroke="none" 
	d="
M130.144348,107.711189 
	C129.337692,107.270462 128.736282,106.469231 128.029724,105.361916 
	C128.732925,105.820786 129.541260,106.585732 130.144348,107.711189 
z"/>
<path fill="#000000" opacity="1.000000" stroke="none" 
	d="
M110.144363,108.711197 
	C109.337708,108.270462 108.736290,107.469231 108.029724,106.361916 
	C108.732918,106.820786 109.541260,107.585739 110.144363,108.711197 
z"/>
<path fill="#000000" opacity="1.000000" stroke="none" 
	d="
M131.989136,110.685234 
	C131.371155,110.280228 130.755814,109.477646 130.033295,108.366547 
	C130.614670,108.801239 131.303207,109.544449 131.989136,110.685234 
z"/>
<path fill="#000000" opacity="1.000000" stroke="none" 
	d="
M115.576569,66.410141 
	C114.837784,65.742569 114.280327,64.928032 113.567474,63.854530 
	C113.412071,63.595558 113.725746,63.240234 114.190536,63.212643 
	C115.129898,64.098152 115.604477,65.011261 116.079048,65.924370 
	C116.079048,65.924370 115.757912,66.263184 115.576569,66.410141 
z"/>
<path fill="#000000" opacity="1.000000" stroke="none" 
	d="
M71.120148,88.702271 
	C70.012062,88.606606 69.079956,88.137802 68.038078,87.364937 
	C69.050911,87.483627 70.173515,87.906380 71.120148,88.702271 
z"/>
<path fill="#000000" opacity="1.000000" stroke="none" 
	d="
M70.876678,97.334084 
	C71.710320,97.796555 72.366974,98.669487 73.266678,99.799393 
	C72.573059,99.285759 71.636375,98.515152 70.876678,97.334084 
z"/>
<path fill="#000000" opacity="1.000000" stroke="none" 
	d="
M76.709915,103.866310 
	C77.490364,104.371315 78.037910,105.253273 78.424561,106.510841 
	C77.668114,106.005394 77.072556,105.124329 76.709915,103.866310 
z"/>
<path fill="#000000" opacity="1.000000" stroke="none" 
	d="
M108.188278,105.799149 
	C107.614922,105.612808 107.308006,105.169632 106.995171,104.421677 
	C107.477737,104.592041 107.966225,105.067177 108.188278,105.799149 
z"/>
<path fill="#000000" opacity="1.000000" stroke="none" 
	d="
M128.881439,65.888184 
	C128.591064,66.381485 128.110107,66.686523 127.318466,66.999664 
	C127.007782,67.007751 127.000076,67.000076 127.045700,66.724167 
	C127.496971,66.073769 127.902626,65.699287 128.308289,65.324814 
	C128.435806,65.449852 128.563339,65.574883 128.881439,65.888184 
z"/>
<path fill="#000000" opacity="1.000000" stroke="none" 
	d="
M72.785110,89.663879 
	C72.300880,89.893394 71.718681,89.776024 71.040237,89.368393 
	C71.525040,89.157753 72.106087,89.237373 72.785110,89.663879 
z"/>
<path fill="#000000" opacity="1.000000" stroke="none" 
	d="
M112.998535,112.992950 
	C113.385956,113.405167 113.791237,113.804596 114.196510,114.204033 
	C114.023041,114.380035 113.849564,114.556046 113.676094,114.732048 
	C113.463554,114.362930 113.251007,113.993820 113.042633,113.286224 
	C113.046806,112.947746 113.016388,112.980156 112.998535,112.992950 
z"/>
<path fill="#FF7F27" opacity="1.000000" stroke="none" 
	d="
M128.527740,65.051086 
	C127.902626,65.699287 127.496971,66.073769 127.042694,66.720596 
	C123.602539,66.760773 120.211006,66.528603 116.449265,66.110397 
	C115.604477,65.011261 115.129898,64.098152 114.367477,63.054993 
	C113.390701,61.642609 112.701775,60.360287 111.922150,58.909157 
	C116.788261,56.062935 121.398743,52.940765 127.479843,54.973576 
	C129.671890,55.706345 131.554443,56.345924 131.020615,59.614845 
	C130.273209,61.609901 129.510208,63.193626 128.527740,65.051086 
z"/>
</svg>