<svg version="1.1" id="Layer_1" xmlns="http://www.w3.org/2000/svg" xmlns:xlink="http://www.w3.org/1999/xlink" x="0px" y="0px"
	 width="100%" viewBox="0 0 144 144" enable-background="new 0 0 144 144" xml:space="preserve">
<path fill="#FF00FF" opacity="1.000000" stroke="none" 
	d="
M78.000000,145.000000 
	C52.022148,145.000000 26.544300,145.000000 1.033225,145.000000 
	C1.033225,97.063866 1.033225,49.127697 1.033225,1.095765 
	C48.894295,1.095765 96.788849,1.095765 144.841705,1.095765 
	C144.841705,48.999584 144.841705,96.999741 144.841705,145.000000 
	C122.794746,145.000000 100.647377,145.000000 78.000000,145.000000 
M21.078644,88.570175 
	C21.663668,89.046852 22.248692,89.523521 23.119692,90.628021 
	C25.063131,92.417801 27.386511,93.938683 28.879017,96.047600 
	C33.419701,102.463577 38.525524,108.715637 41.654770,115.806671 
	C43.555786,120.114471 42.461491,125.815399 38.555473,130.078064 
	C36.656143,132.150803 35.434898,134.844894 33.436550,138.000000 
	C39.818184,138.000000 45.402634,138.000000 50.987083,138.000000 
	C62.815815,138.000000 74.644829,138.049133 86.473175,137.981293 
	C93.397270,137.941574 100.541183,138.469162 105.758743,131.587601 
	C108.500671,137.127197 112.445282,139.287537 118.780205,137.659973 
	C118.911270,136.242783 119.042328,134.825592 119.200424,133.116104 
	C122.230942,133.514893 125.204964,129.286911 128.451599,133.904831 
	C129.467270,134.898956 130.482941,135.893082 131.983795,137.446228 
	C132.655777,137.575272 133.327759,137.704315 134.849503,137.979141 
	C135.564423,137.388840 136.959930,136.686844 136.884338,136.226273 
	C136.374939,133.122192 135.553650,130.069290 134.982254,126.148468 
	C134.654831,122.319450 134.470688,118.470436 133.940231,114.669754 
	C133.670212,112.734932 132.777481,110.887016 131.873245,108.360352 
	C131.034393,107.192909 130.370377,105.829292 129.322952,104.895889 
	C126.508049,102.387367 125.465454,99.782242 125.781174,95.676163 
	C126.300346,88.924034 124.555946,82.351059 119.975189,76.239616 
	C119.280060,74.660385 118.584930,73.081146 117.586121,71.122559 
	C116.890495,70.452232 116.194870,69.781914 115.016937,68.540482 
	C114.955742,67.026993 114.894539,65.513496 114.997375,63.223080 
	C117.578308,61.585785 118.603073,59.238235 117.983383,56.268978 
	C117.335548,53.164948 116.555557,50.088501 116.180717,46.287727 
	C116.787140,44.184689 118.253189,41.891228 117.837479,40.014614 
	C116.630547,34.566296 114.668922,29.285156 112.995018,23.998453 
	C112.995018,23.998453 113.054665,23.987658 112.901222,23.402773 
	C112.267502,22.990736 111.633781,22.578699 110.360542,21.870956 
	C106.851479,19.247282 103.342415,16.623610 99.653961,13.213737 
	C92.620262,12.809158 85.590622,12.237980 78.551247,12.066355 
	C74.709282,11.972686 70.850830,12.555869 66.255165,13.213486 
	C60.612507,14.479931 54.747787,15.147337 49.374073,17.139303 
	C38.657307,21.111868 27.860857,25.205269 19.177664,34.294594 
	C18.118418,37.415028 16.777710,40.473045 16.068533,43.671108 
	C15.101503,48.031960 14.615903,52.499569 13.196742,57.339725 
	C13.798276,61.916096 14.399810,66.492462 15.013207,70.987000 
	C15.013207,70.987000 14.931711,70.973045 14.993045,71.829124 
	C16.327332,76.239807 17.661617,80.650482 19.002575,84.996864 
	C19.002575,84.996864 18.938025,85.000450 19.125521,85.631805 
	C19.748892,86.441307 20.372263,87.250801 21.003523,87.999237 
	C21.003523,87.999237 20.942568,88.007965 21.078644,88.570175 
z"/>
<path fill="#22B14C" opacity="1.000000" stroke="none" 
	d="
M115.499237,69.111595 
	C116.194870,69.781914 116.890495,70.452232 117.475655,71.651787 
	C118.187912,73.787285 119.010635,75.393555 119.833351,76.999832 
	C124.555946,82.351059 126.300346,88.924034 125.781174,95.676163 
	C125.465454,99.782242 126.508049,102.387367 129.322952,104.895889 
	C130.370377,105.829292 131.034393,107.192909 131.960236,109.100395 
	C132.003189,114.870369 131.959152,119.900291 131.667664,125.057457 
	C131.373825,125.604042 131.327454,126.023392 131.281082,126.442741 
	C131.727280,126.186134 132.173492,125.929527 132.857086,125.549942 
	C133.674118,125.951256 134.253738,126.475540 134.833359,126.999825 
	C135.553650,130.069290 136.374939,133.122192 136.884338,136.226273 
	C136.959930,136.686844 135.564423,137.388840 134.200089,137.563309 
	C132.866653,137.060715 132.182632,136.973969 131.498611,136.887207 
	C130.482941,135.893082 129.467270,134.898956 128.535645,133.329086 
	C126.829300,131.703354 125.038902,130.653366 123.248512,129.603378 
	C123.130478,129.873672 123.012444,130.143951 122.894409,130.414246 
	C121.589767,128.911240 120.285118,127.408226 118.980476,125.905220 
	C118.653671,126.114449 118.326874,126.323677 118.000069,126.532906 
	C118.000069,130.299728 118.000069,134.066544 118.000069,137.833359 
	C112.445282,139.287537 108.500671,137.127197 105.758743,131.587601 
	C100.541183,138.469162 93.397270,137.941574 86.473175,137.981293 
	C74.644829,138.049133 62.815815,138.000000 50.987083,138.000000 
	C45.402634,138.000000 39.818184,138.000000 33.436550,138.000000 
	C35.434898,134.844894 36.656143,132.150803 38.555473,130.078064 
	C42.461491,125.815399 43.555786,120.114471 41.654770,115.806671 
	C38.525524,108.715637 33.419701,102.463577 28.879017,96.047600 
	C27.386511,93.938683 25.063131,92.417801 23.018082,89.936081 
	C22.258505,88.832085 21.600536,88.420021 20.942568,88.007965 
	C20.942568,88.007965 21.003523,87.999237 21.204487,87.668198 
	C20.582975,86.558258 19.760500,85.779350 18.938025,85.000450 
	C18.938025,85.000450 19.002575,84.996864 19.201530,84.665070 
	C17.910894,79.879868 16.421303,75.426460 14.931711,70.973045 
	C14.931711,70.973045 15.013207,70.987000 15.006874,70.606384 
	C15.953218,67.073784 16.905895,63.921810 17.880943,60.695820 
	C20.730087,59.375271 23.811365,57.385231 27.181873,56.513596 
	C32.545811,55.126442 38.102535,54.484760 43.739723,53.954132 
	C45.037872,57.479595 45.634979,60.939316 47.418468,63.605396 
	C51.578495,69.824104 64.872856,71.020020 70.425323,66.050835 
	C74.952530,61.999203 79.457863,57.923141 84.368301,53.860592 
	C88.120491,53.911312 91.477287,53.959354 94.988297,54.311977 
	C97.376595,57.186905 99.597168,59.769150 101.848595,62.324211 
	C104.044441,64.816193 106.215454,67.463448 110.353989,64.903603 
	C111.400948,65.398315 112.714340,66.181618 112.698830,66.208870 
	C110.281700,70.457443 113.946045,68.777786 115.499237,69.111595 
M113.349358,119.130013 
	C113.844025,119.753281 114.338684,120.376541 115.132027,121.641953 
	C115.579506,122.028053 116.026993,122.414154 116.822754,123.100754 
	C116.449760,119.668526 116.141762,116.834351 115.959381,113.149490 
	C116.315407,110.919479 116.671440,108.689468 117.027466,106.459457 
	C117.569763,106.423210 118.112061,106.386963 118.654358,106.350708 
	C117.126099,105.538780 115.597832,104.726852 113.693352,103.324608 
	C112.335114,102.787621 110.976875,102.250626 109.618645,101.713638 
	C109.511520,101.963150 109.404396,102.212662 109.297279,102.462181 
	C110.640709,103.185074 111.984131,103.907967 113.712524,105.247437 
	C113.030479,108.729500 112.183449,112.193016 111.788437,115.707344 
	C111.695732,116.532120 113.131081,117.528648 113.888855,118.398628 
	C113.888855,118.398628 113.887199,118.498611 113.349358,119.130013 
M86.683762,113.153908 
	C84.439835,114.344299 82.195908,115.534691 79.951973,116.725082 
	C80.125313,116.993057 80.298653,117.261040 80.471992,117.529022 
	C83.969025,117.529022 87.466057,117.529022 92.351372,117.529022 
	C89.939766,115.710533 88.572838,114.679787 86.683762,113.153908 
M94.101944,94.208710 
	C94.686432,90.338013 95.270912,86.467316 96.025925,81.467331 
	C91.976700,88.248390 92.024193,94.417770 96.499626,99.464622 
	C95.403084,97.067307 94.897781,95.962585 94.101944,94.208710 
M41.351685,92.490929 
	C42.176205,97.399033 43.000729,102.307129 43.825253,107.215225 
	C44.145733,107.154991 44.466213,107.094749 44.786694,107.034508 
	C44.786694,103.693138 44.786694,100.351768 44.786694,97.010399 
	C44.643707,96.994423 44.500721,96.978447 44.357735,96.962471 
	C44.095753,98.067390 43.833775,99.172310 43.501865,100.572159 
	C42.896942,97.794495 42.380135,95.421432 41.351685,92.490929 
M105.798988,100.175354 
	C106.692932,100.497543 107.586868,100.819733 108.480812,101.141922 
	C108.563629,100.820351 108.646446,100.498779 108.729263,100.177208 
	C107.630821,99.995346 106.532387,99.813477 105.798988,100.175354 
M120.158112,108.798088 
	C120.109299,108.484604 120.060478,108.171120 120.011658,107.857635 
	C119.790459,107.905701 119.569267,107.953773 119.348068,108.001846 
	C119.415009,108.252426 119.481949,108.503014 120.158112,108.798088 
M38.220600,89.807343 
	C38.412041,90.120972 38.603477,90.434601 38.794910,90.748230 
	C38.778038,90.337029 38.761166,89.925819 38.220600,89.807343 
M91.894844,119.117302 
	C92.109604,119.202049 92.324356,119.286797 92.539108,119.371544 
	C92.611343,119.118935 92.683578,118.866325 92.755821,118.613716 
	C92.396011,118.587563 92.036201,118.561409 91.894844,119.117302 
M18.537315,67.748329 
	C18.800732,67.699905 19.064146,67.651482 19.327562,67.603050 
	C19.278881,67.387474 19.230198,67.171890 19.181517,66.956314 
	C18.862717,67.040787 18.543917,67.125267 18.537315,67.748329 
z"/>
<path fill="#22B14C" opacity="1.000000" stroke="none" 
	d="
M19.833731,33.999817 
	C27.860857,25.205269 38.657307,21.111868 49.374073,17.139303 
	C54.747787,15.147337 60.612507,14.479931 67.091873,13.087505 
	C78.563507,13.307661 89.198433,13.653799 99.833351,13.999937 
	C103.342415,16.623610 106.851479,19.247282 110.709831,22.388599 
	C111.724304,23.266712 112.389481,23.627184 113.054665,23.987656 
	C113.054665,23.987658 112.995018,23.998453 112.802490,24.337772 
	C114.984749,31.022476 118.086288,37.257221 115.595161,44.366707 
	C109.497902,42.431187 103.511162,41.745667 98.033089,46.039055 
	C98.056778,46.026508 98.045158,45.972721 97.645828,45.835178 
	C92.865601,45.608505 88.331924,44.785709 84.150879,45.656353 
	C80.642197,46.386974 77.708549,45.769989 74.377701,45.454407 
	C68.062614,44.856083 61.603374,45.758034 55.208599,46.118176 
	C55.004383,46.129673 54.850422,47.033638 54.259842,47.696625 
	C50.897903,48.635273 47.949154,49.398849 44.628784,50.084358 
	C43.029350,49.660732 41.687874,49.510727 40.619930,48.890072 
	C40.055569,48.562080 39.967552,47.414455 39.895721,46.472610 
	C40.591805,46.054462 41.056648,45.800583 41.521492,45.546703 
	C41.428051,45.347832 41.334610,45.148956 41.241169,44.950085 
	C40.470608,45.272018 39.700050,45.593952 38.618446,46.140121 
	C39.027107,50.723053 34.663033,49.328743 32.620602,51.017075 
	C27.040022,52.304729 21.870268,53.601910 15.012139,55.322731 
	C16.751719,47.629654 18.292725,40.814735 19.833731,33.999817 
z"/>
<path fill="#FFC90E" opacity="1.000000" stroke="none" 
	d="
M109.999870,64.839149 
	C106.215454,67.463448 104.044441,64.816193 101.848595,62.324211 
	C99.597168,59.769150 97.376595,57.186905 95.067192,53.956161 
	C99.720695,45.755840 104.151268,44.125488 114.332329,46.402451 
	C114.949005,46.707851 115.391174,46.853924 115.833336,46.999996 
	C116.555557,50.088501 117.335548,53.164948 117.983383,56.268978 
	C118.603073,59.238235 117.578308,61.585785 114.539467,63.611549 
	C112.720993,64.279724 111.360435,64.559433 109.999870,64.839149 
z"/>
<path fill="#000000" opacity="1.000000" stroke="none" 
	d="
M39.664478,46.636875 
	C39.967552,47.414455 40.055569,48.562080 40.619930,48.890072 
	C41.687874,49.510727 43.029350,49.660732 44.574028,50.399162 
	C44.453159,51.703957 44.015442,52.615875 43.577721,53.527794 
	C38.102535,54.484760 32.545811,55.126442 27.181873,56.513596 
	C23.811365,57.385231 20.730087,59.375271 17.880943,60.695820 
	C16.905895,63.921810 15.953218,67.073784 15.000942,70.647293 
	C14.399810,66.492462 13.798276,61.916096 13.651464,57.224640 
	C14.106185,57.109550 14.288507,57.297665 14.267092,57.663990 
	C14.439144,60.058907 14.632612,62.087498 14.826080,64.116089 
	C15.166533,64.081749 15.506986,64.047409 15.847438,64.013069 
	C15.962564,62.550537 16.077692,61.088009 16.223719,59.232944 
	C24.621906,56.396404 33.017822,53.560627 40.679111,50.972977 
	C38.721260,50.972977 35.852577,50.972977 32.994904,50.987152 
	C33.005905,51.001331 33.031425,51.026600 33.031425,51.026600 
	C34.663033,49.328743 39.027107,50.723053 38.791794,46.330971 
	C39.405617,46.410679 39.535049,46.523777 39.664478,46.636875 
z"/>
<path fill="#000000" opacity="1.000000" stroke="none" 
	d="
M116.007027,46.643860 
	C115.391174,46.853924 114.949005,46.707851 114.142868,46.030190 
	C111.793961,44.999413 109.768135,43.970024 107.833221,44.119255 
	C104.528595,44.374119 101.280968,45.368076 98.009399,46.051598 
	C103.511162,41.745667 109.497902,42.431187 115.595161,44.366707 
	C118.086288,37.257221 114.984749,31.022476 112.806671,24.307758 
	C114.668922,29.285156 116.630547,34.566296 117.837479,40.014614 
	C118.253189,41.891228 116.787140,44.184689 116.007027,46.643860 
z"/>
<path fill="#000000" opacity="1.000000" stroke="none" 
	d="
M19.505697,34.147205 
	C18.292725,40.814735 16.751719,47.629654 15.012139,55.322731 
	C21.870268,53.601910 27.040022,52.304729 32.620602,51.017075 
	C33.031425,51.026600 33.005905,51.001331 32.820511,51.316769 
	C26.519579,53.520691 20.404043,55.409180 14.288507,57.297668 
	C14.288507,57.297665 14.106185,57.109550 14.015038,57.015480 
	C14.615903,52.499569 15.101503,48.031960 16.068533,43.671108 
	C16.777710,40.473045 18.118418,37.415028 19.505697,34.147205 
z"/>
<path fill="#000000" opacity="1.000000" stroke="none" 
	d="
M118.390137,137.746674 
	C118.000069,134.066544 118.000069,130.299728 118.000069,126.532906 
	C118.326874,126.323677 118.653671,126.114449 118.980476,125.905220 
	C120.285118,127.408226 121.589767,128.911240 122.894409,130.414246 
	C123.012444,130.143951 123.130478,129.873672 123.248512,129.603378 
	C125.038902,130.653366 126.829300,131.703354 128.363663,133.124161 
	C125.204964,129.286911 122.230942,133.514893 119.200424,133.116104 
	C119.042328,134.825592 118.911270,136.242783 118.390137,137.746674 
z"/>
<path fill="#000000" opacity="1.000000" stroke="none" 
	d="
M99.743652,13.606837 
	C89.198433,13.653799 78.563507,13.307661 67.464203,12.897664 
	C70.850830,12.555869 74.709282,11.972686 78.551247,12.066355 
	C85.590622,12.237980 92.620262,12.809158 99.743652,13.606837 
z"/>
<path fill="#000000" opacity="1.000000" stroke="none" 
	d="
M134.907806,126.574142 
	C134.253738,126.475540 133.674118,125.951256 132.692719,125.353104 
	C132.165680,125.162895 132.040405,125.046562 131.915115,124.930222 
	C131.959152,119.900291 132.003189,114.870369 132.106735,109.420128 
	C132.777481,110.887016 133.670212,112.734932 133.940231,114.669754 
	C134.470688,118.470436 134.654831,122.319450 134.907806,126.574142 
z"/>
<path fill="#000000" opacity="1.000000" stroke="none" 
	d="
M14.962379,71.401085 
	C16.421303,75.426460 17.910894,79.879868 19.198195,84.697220 
	C17.661617,80.650482 16.327332,76.239807 14.962379,71.401085 
z"/>
<path fill="#000000" opacity="1.000000" stroke="none" 
	d="
M110.353989,64.903603 
	C111.360435,64.559433 112.720993,64.279724 114.457451,64.000015 
	C114.894539,65.513496 114.955742,67.026993 115.258087,68.826035 
	C113.946045,68.777786 110.281700,70.457443 112.698830,66.208870 
	C112.714340,66.181618 111.400948,65.398315 110.353989,64.903603 
z"/>
<path fill="#000000" opacity="1.000000" stroke="none" 
	d="
M119.904266,76.619720 
	C119.010635,75.393555 118.187912,73.787285 117.627487,71.841461 
	C118.584930,73.081146 119.280060,74.660385 119.904266,76.619720 
z"/>
<path fill="#000000" opacity="1.000000" stroke="none" 
	d="
M19.031773,85.316132 
	C19.760500,85.779350 20.582975,86.558258 21.200542,87.698730 
	C20.372263,87.250801 19.748892,86.441307 19.031773,85.316132 
z"/>
<path fill="#000000" opacity="1.000000" stroke="none" 
	d="
M21.010605,88.289070 
	C21.600536,88.420021 22.258505,88.832085 22.875095,89.622162 
	C22.248692,89.523521 21.663668,89.046852 21.010605,88.289070 
z"/>
<path fill="#000000" opacity="1.000000" stroke="none" 
	d="
M112.977943,23.695213 
	C112.389481,23.627184 111.724304,23.266712 111.029587,22.536449 
	C111.633781,22.578699 112.267502,22.990736 112.977943,23.695213 
z"/>
<path fill="#000000" opacity="1.000000" stroke="none" 
	d="
M131.741211,137.166718 
	C132.182632,136.973969 132.866653,137.060715 133.775208,137.490417 
	C133.327759,137.704315 132.655777,137.575272 131.741211,137.166718 
z"/>
<path fill="#FFC90E" opacity="1.000000" stroke="none" 
	d="
M43.739723,53.954132 
	C44.015442,52.615875 44.453159,51.703957 44.945641,50.477234 
	C47.949154,49.398849 50.897903,48.635273 54.626442,47.723892 
	C61.932606,47.437210 68.458984,47.298332 75.147926,47.466595 
	C78.197960,49.801788 81.085426,51.829849 83.972900,53.857910 
	C79.457863,57.923141 74.952530,61.999203 70.425323,66.050835 
	C64.872856,71.020020 51.578495,69.824104 47.418468,63.605396 
	C45.634979,60.939316 45.037872,57.479595 43.739723,53.954132 
z"/>
<path fill="#666666" opacity="1.000000" stroke="none" 
	d="
M84.368301,53.860592 
	C81.085426,51.829849 78.197960,49.801788 75.542892,47.431664 
	C83.198593,46.717304 90.621872,46.345013 98.045158,45.972721 
	C98.045158,45.972721 98.056778,46.026508 98.033089,46.039055 
	C101.280968,45.368076 104.528595,44.374119 107.833221,44.119255 
	C109.768135,43.970024 111.793961,44.999413 113.968353,45.870865 
	C104.151268,44.125488 99.720695,45.755840 94.912979,53.651581 
	C91.477287,53.959354 88.120491,53.911312 84.368301,53.860592 
z"/>
<path fill="#000000" opacity="1.000000" stroke="none" 
	d="
M86.944832,113.401474 
	C88.572838,114.679787 89.939766,115.710533 92.351372,117.529022 
	C87.466057,117.529022 83.969025,117.529022 80.471992,117.529022 
	C80.298653,117.261040 80.125313,116.993057 79.951973,116.725082 
	C82.195908,115.534691 84.439835,114.344299 86.944832,113.401474 
z"/>
<path fill="#000000" opacity="1.000000" stroke="none" 
	d="
M113.863426,118.446152 
	C113.131081,117.528648 111.695732,116.532120 111.788437,115.707344 
	C112.183449,112.193016 113.030479,108.729500 113.715805,104.770798 
	C113.835907,104.167747 113.952744,104.041336 114.069572,103.914917 
	C115.597832,104.726852 117.126099,105.538780 118.654358,106.350708 
	C118.112061,106.386963 117.569763,106.423210 117.027466,106.459457 
	C116.671440,108.689468 116.315407,110.919479 115.561432,113.387100 
	C115.024414,111.899475 114.885338,110.174240 114.746254,108.449013 
	C114.205872,108.485626 113.665482,108.522240 113.125099,108.558853 
	C113.371208,111.854622 113.617317,115.150383 113.863426,118.446152 
z"/>
<path fill="#FF00FF" opacity="1.000000" stroke="none" 
	d="
M113.876144,118.422394 
	C113.617317,115.150383 113.371208,111.854622 113.125099,108.558853 
	C113.665482,108.522240 114.205872,108.485626 114.746254,108.449013 
	C114.885338,110.174240 115.024414,111.899475 115.498627,113.812439 
	C116.141762,116.834351 116.449760,119.668526 116.822754,123.100754 
	C116.026993,122.414154 115.579506,122.028053 115.054596,120.958374 
	C114.613846,119.682739 114.250519,119.090675 113.887199,118.498611 
	C113.887199,118.498611 113.888855,118.398628 113.876144,118.422394 
z"/>
<path fill="#000000" opacity="1.000000" stroke="none" 
	d="
M94.247208,94.533295 
	C94.897781,95.962585 95.403084,97.067307 96.499626,99.464622 
	C92.024193,94.417770 91.976700,88.248390 96.025925,81.467331 
	C95.270912,86.467316 94.686432,90.338013 94.247208,94.533295 
z"/>
<path fill="#000000" opacity="1.000000" stroke="none" 
	d="
M41.607506,92.769646 
	C42.380135,95.421432 42.896942,97.794495 43.501865,100.572159 
	C43.833775,99.172310 44.095753,98.067390 44.357735,96.962471 
	C44.500721,96.978447 44.643707,96.994423 44.786694,97.010399 
	C44.786694,100.351768 44.786694,103.693138 44.786694,107.034508 
	C44.466213,107.094749 44.145733,107.154991 43.825253,107.215225 
	C43.000729,102.307129 42.176205,97.399033 41.607506,92.769646 
z"/>
<path fill="#000000" opacity="1.000000" stroke="none" 
	d="
M113.523315,104.462509 
	C111.984131,103.907967 110.640709,103.185074 109.297279,102.462181 
	C109.404396,102.212662 109.511520,101.963150 109.618645,101.713638 
	C110.976875,102.250626 112.335114,102.787621 113.881462,103.619766 
	C113.952744,104.041336 113.835907,104.167747 113.523315,104.462509 
z"/>
<path fill="#000000" opacity="1.000000" stroke="none" 
	d="
M105.616470,99.903488 
	C106.532387,99.813477 107.630821,99.995346 108.729263,100.177208 
	C108.646446,100.498779 108.563629,100.820351 108.480812,101.141922 
	C107.586868,100.819733 106.692932,100.497543 105.616470,99.903488 
z"/>
<path fill="#000000" opacity="1.000000" stroke="none" 
	d="
M119.853500,108.775841 
	C119.481949,108.503014 119.415009,108.252426 119.348068,108.001846 
	C119.569267,107.953773 119.790459,107.905701 120.011658,107.857635 
	C120.060478,108.171120 120.109299,108.484604 119.853500,108.775841 
z"/>
<path fill="#000000" opacity="1.000000" stroke="none" 
	d="
M38.482445,89.660980 
	C38.761166,89.925819 38.778038,90.337029 38.794914,90.748230 
	C38.603477,90.434601 38.412041,90.120972 38.482445,89.660980 
z"/>
<path fill="#000000" opacity="1.000000" stroke="none" 
	d="
M91.785614,118.826279 
	C92.036201,118.561409 92.396011,118.587563 92.755814,118.613716 
	C92.683578,118.866325 92.611343,119.118935 92.539108,119.371544 
	C92.324356,119.286797 92.109604,119.202049 91.785614,118.826279 
z"/>
<path fill="#000000" opacity="1.000000" stroke="none" 
	d="
M113.618279,118.814316 
	C114.250519,119.090675 114.613846,119.682739 114.905258,120.637306 
	C114.338684,120.376541 113.844025,119.753281 113.618279,118.814316 
z"/>
<path fill="#000000" opacity="1.000000" stroke="none" 
	d="
M132.455322,125.476074 
	C132.173492,125.929527 131.727280,126.186134 131.281082,126.442741 
	C131.327454,126.023392 131.373825,125.604042 131.667664,125.057457 
	C132.040405,125.046562 132.165680,125.162895 132.455322,125.476074 
z"/>
<path fill="#000000" opacity="1.000000" stroke="none" 
	d="
M18.381218,67.479034 
	C18.543917,67.125267 18.862717,67.040787 19.181517,66.956314 
	C19.230198,67.171890 19.278881,67.387474 19.327562,67.603050 
	C19.064146,67.651482 18.800732,67.699905 18.381218,67.479034 
z"/>
<path fill="#000000" opacity="1.000000" stroke="none" 
	d="
M97.645828,45.835178 
	C90.621872,46.345013 83.198593,46.717304 75.380341,47.124527 
	C68.458984,47.298332 61.932606,47.437210 55.039627,47.548820 
	C54.850422,47.033638 55.004383,46.129673 55.208599,46.118176 
	C61.603374,45.758034 68.062614,44.856083 74.377701,45.454407 
	C77.708549,45.769989 80.642197,46.386974 84.150879,45.656353 
	C88.331924,44.785709 92.865601,45.608505 97.645828,45.835178 
z"/>
<path fill="#000000" opacity="1.000000" stroke="none" 
	d="
M39.102837,46.106735 
	C39.700050,45.593952 40.470608,45.272018 41.241169,44.950085 
	C41.334610,45.148956 41.428051,45.347832 41.521492,45.546703 
	C41.056648,45.800583 40.591805,46.054462 39.895721,46.472610 
	C39.535049,46.523777 39.405617,46.410679 39.102837,46.106735 
z"/>
<path fill="#666666" opacity="1.000000" stroke="none" 
	d="
M14.267092,57.663994 
	C20.404043,55.409180 26.519579,53.520691 32.809505,51.302589 
	C35.852577,50.972977 38.721260,50.972977 40.679111,50.972977 
	C33.017822,53.560627 24.621906,56.396404 16.223719,59.232944 
	C16.077692,61.088009 15.962564,62.550537 15.847438,64.013069 
	C15.506986,64.047409 15.166533,64.081749 14.826080,64.116089 
	C14.632612,62.087498 14.439144,60.058907 14.267092,57.663994 
z"/>
</svg>