<svg version="1.1" id="Layer_1" xmlns="http://www.w3.org/2000/svg" xmlns:xlink="http://www.w3.org/1999/xlink" x="0px" y="0px"
	 width="100%" viewBox="0 0 160 160" enable-background="new 0 0 160 160" xml:space="preserve">
<path fill="#000000" opacity="1.000000" stroke="none" 
	d="
M65.309731,12.187222 
	C95.616463,16.568352 112.790886,51.274658 97.915672,77.417297 
	C94.040909,84.227051 94.214409,84.000679 100.351906,88.704720 
	C114.946846,99.890900 129.407303,111.254539 143.816330,122.679878 
	C147.451340,125.562195 151.641464,127.747635 154.724915,131.330368 
	C160.525009,138.069641 159.223160,145.810455 151.525833,149.473679 
	C146.273438,151.973328 142.069962,149.434631 138.580994,145.877167 
	C128.223953,135.316833 118.047974,124.578697 107.822029,113.890160 
	C101.851585,107.649635 95.901314,101.389496 89.982140,95.100388 
	C87.638496,92.610268 85.633324,91.977608 82.318413,94.192863 
	C69.495392,102.762131 55.341717,104.082840 41.490311,98.021881 
	C13.563822,85.802071 4.929580,52.477409 22.977757,29.636889 
	C33.799171,15.942056 47.646461,10.089644 65.309731,12.187222 
M24.495222,35.047848 
	C13.275538,54.179230 18.386850,75.630867 34.609470,88.342644 
	C53.768093,103.355003 81.512985,97.009872 93.268494,76.183220 
	C102.292809,60.195274 100.322670,42.166752 87.449791,28.900639 
	C77.586075,18.735615 65.187317,14.265067 50.707920,17.260937 
	C39.736862,19.530914 31.393970,25.563654 24.495222,35.047848 
z"/>
<path fill="#000000" opacity="1.000000" stroke="none" 
	d="
M53.582031,26.532772 
	C63.431702,20.655685 73.799355,21.651760 81.294044,28.867342 
	C88.148308,35.466354 90.313904,46.093979 86.341187,53.895866 
	C83.415894,53.581085 83.667374,51.665089 84.084167,49.558067 
	C85.569336,42.050060 83.253151,35.797699 77.430824,30.974955 
	C71.604172,26.148621 65.153122,24.813931 57.992275,28.091957 
	C56.383041,28.828619 53.865028,31.010481 53.582031,26.532772 
z"/>
</svg>