<svg version="1.1" id="Layer_1" xmlns="http://www.w3.org/2000/svg" xmlns:xlink="http://www.w3.org/1999/xlink" x="0px" y="0px"
	 width="100%" viewBox="0 0 288 288" enable-background="new 0 0 288 288" xml:space="preserve">
<path fill="#000000" opacity="1.000000" stroke="none" 
	d="
M151.356079,191.689240 
	C139.873947,195.918594 128.507721,198.469086 116.521461,198.429214 
	C77.070160,198.297974 42.644093,171.242554 33.763737,132.717392 
	C28.041565,107.893211 33.567783,85.279648 48.939835,65.207314 
	C63.457596,46.250488 82.803558,35.427895 106.587418,32.571224 
	C136.845840,28.936890 162.409103,38.579216 182.741425,60.851875 
	C198.219833,77.807373 204.975113,98.580650 203.149506,121.429108 
	C201.659592,140.076294 194.454895,156.730743 181.462860,170.568146 
	C180.898285,171.169464 180.388031,171.821793 179.903259,172.390747 
	C179.900787,174.479813 181.550690,175.325974 182.629501,176.489441 
	C201.208527,196.526321 222.980072,213.049988 242.992630,231.492767 
	C255.594452,243.106125 269.682678,253.792389 277.113068,270.139557 
	C278.218719,272.572021 279.888672,275.144897 277.834290,277.550354 
	C275.670959,280.083405 273.087189,278.306702 270.549805,277.507629 
	C263.079407,275.154999 256.942596,271.028046 251.354126,265.501617 
	C236.792206,251.101349 223.838196,235.348297 211.168701,219.323822 
	C200.301086,205.578400 187.591599,193.567902 175.210541,181.247620 
	C173.576721,179.621826 172.288208,178.967819 170.159988,180.761703 
	C164.653076,185.403473 158.189087,188.501511 151.356079,191.689240 
M50.272602,72.719543 
	C49.545147,74.024643 48.837078,75.340996 48.087353,76.633179 
	C34.593262,99.890770 33.402851,124.001564 45.110451,147.965332 
	C61.372543,181.251465 96.834976,198.261459 132.664948,191.259521 
	C160.734558,185.774124 181.375122,169.714737 192.347229,142.424042 
	C203.099152,115.681015 196.811737,82.957436 176.534042,62.565002 
	C157.292511,43.214596 134.098602,34.875916 106.929871,38.339977 
	C83.281075,41.355251 64.526970,52.695442 50.272602,72.719543 
z"/>
<path fill="#000000" opacity="1.000000" stroke="none" 
	d="
M146.781982,63.306313 
	C138.366089,58.646099 129.701157,56.038441 120.483513,55.345123 
	C117.429337,55.115395 115.876381,53.242027 114.445541,50.920139 
	C121.544586,46.796890 146.527573,54.401207 157.010513,62.917316 
	C174.361847,77.013145 182.406036,95.075684 182.348648,118.028656 
	C178.340775,116.084541 176.951859,113.912155 176.568176,110.345016 
	C174.378311,89.986244 164.942078,74.048447 146.781982,63.306313 
z"/>
</svg>